PathFileType	4	(X/Y/Z)	RBDS026\RBDS026runT45.trc
DataRate	CameraRate	NumFrames	NumMarkers	Units	OrigDataRate	OrigDataStartFrame	OrigNumFrames
150.000000	150.000000	4	33	mm	150.000000	2812	4500
Frame#	Time	L.ASIS			L.Heel.Bottom			L.Heel.Lateral			L.Heel.Top			L.Iliac.Crest			L.MT1			L.MT5			L.PSIS			L.Shank.Bottom.Lateral			L.Shank.Bottom.Medial			L.Shank.Top.Lateral			L.Shank.Top.Medial			L.Thigh.Bottom.Lateral			L.Thigh.Bottom.Medial			L.Thigh.Top.Lateral			L.Thigh.Top.Medial			R.ASIS			R.ASY			R.Heel.Bottom			R.Heel.Lateral			R.Heel.Top			R.Iliac.Crest			R.MT1			R.MT5			R.PSIS			R.Shank.Bottom.Lateral			R.Shank.Bottom.Medial			R.Shank.Top.Lateral			R.Shank.Top.Medial			R.Thigh.Bottom.Lateral			R.Thigh.Bottom.Medial			R.Thigh.Top.Lateral			R.Thigh.Top.Medial			
		X1	Y1	Z1	X2	Y2	Z2	X3	Y3	Z3	X4	Y4	Z4	X5	Y5	Z5	X6	Y6	Z6	X7	Y7	Z7	X8	Y8	Z8	X9	Y9	Z9	X10	Y10	Z10	X11	Y11	Z11	X12	Y12	Z12	X13	Y13	Z13	X14	Y14	Z14	X15	Y15	Z15	X16	Y16	Z16	X17	Y17	Z17	X18	Y18	Z18	X19	Y19	Z19	X20	Y20	Z20	X21	Y21	Z21	X22	Y22	Z22	X23	Y23	Z23	X24	Y24	Z24	X25	Y25	Z25	X26	Y26	Z26	X27	Y27	Z27	X28	Y28	Z28	X29	Y29	Z29	X30	Y30	Z30	X31	Y31	Z31	X32	Y32	Z32	X33	Y33	Z33	

2813	18.74666666666667	2284.006606967437	965.7243001847442	911.7203255708433	1911.001825480938	621.0642253280573	981.1165023551321	1923.532537362463	590.8322576991911	930.1792224460044	1953.925977614584	600.2222114759257	980.5873872589043	2205.424733131282	1054.741971587594	860.362864651501	1868.038647358715	398.5004118431659	980.5589863838305	1872.526487132453	453.8120923185556	882.0837724675731	2108.767581518337	1028.252192045309	959.8644454461948	2033.160354392315	527.2917602800819	902.161026157898	2039.728785810571	570.8148818009375	927.8505113281052	2111.09430033541	524.483143032677	879.9503715141936	2121.543094692894	569.4840759688617	905.271007195389	2330.956740218142	595.0347932270874	848.378958844786	2279.205601049679	572.8661572919597	892.9651814540401	2278.489826219212	689.9816851201995	833.3282415105616	2226.912701412445	667.1029840753872	874.0035796350962	2260.648100617452	990.1504781005708	1161.393777418855	2092.730132604174	81.44440864996923	1056.787369784991	1909.128981609308	51.8890342919614	1014.547938847182	1935.425911751812	62.29353283652959	1066.013495675176	1922.983920065041	95.90044440735464	1021.825268192677	2177.347535787886	1048.890275264088	1180.136099062022	2135.09378951863	49.12021331082383	1006.844596153756	2088.524588667177	32.00351855447499	1112.402908437184	2102.164467629198	1037.46499986197	1055.634077343907	2024.144565512677	155.5338685891113	1110.122578440826	1983.893387418141	183.4371848209234	1084.385833289705	2048.682088708614	224.9796990236375	1144.818140930834	2007.942245663269	250.9932052942846	1120.368989461448	2199.855240306133	573.3418148799539	1214.510404510946	2138.654044051817	569.0363761245252	1177.636351490992	2185.649010155148	683.0546958843006	1223.186502867382	2126.925806501682	677.9743194984783	1188.405631589749	
2814	18.75333333333333	2284.689221765934	972.6972452835681	912.0885860326877	1916.629469075452	602.6823702011562	978.7016527700191	1932.479769843825	573.2343998559727	928.232386999214	1961.129357738243	585.356838653358	979.0391006841625	2205.010373474564	1060.685619979538	861.5327632481445	1891.606472110445	377.2472460663697	979.4059501136499	1893.46561183673	432.0109568337394	880.4825353007471	2109.538366815949	1033.454880931042	962.518384842433	2047.032798594229	516.5691340806862	902.5187437634332	2050.188702335767	561.2031950791176	927.0591337016928	2125.163095005875	518.856153671619	880.9428699842554	2132.106919188524	565.1821386583783	905.1251834729429	2343.976666847054	606.2733131923987	851.2516535563083	2292.326696609548	581.8956643235413	895.2448519328244	2287.734360081809	699.020754027204	835.1845947655519	2236.568939942073	674.155630001131	875.3109857426598	2262.445485229786	992.3604904603059	1160.632007616858	2064.252287204925	82.16385910481883	1056.912989588479	1879.54970609099	58.35086111976687	1014.99713654584	1906.433188642734	67.68960726387704	1066.412538340627	1894.452560406193	102.0179562108954	1022.459606912553	2181.439494128036	1053.270470491129	1181.395426100889	2104.751692571679	48.54662734768142	1006.405156640437	2058.00724010538	32.27725617886239	1112.012042764243	2103.935297336171	1041.53521701513	1058.890547889699	1996.4794579993	160.6076299097493	1109.793138658062	1957.064905924923	189.0206315272943	1083.290312286367	2022.187311588708	229.8878047856831	1143.983401401334	1982.20968500725	256.3785722850432	1118.790545138467	2184.585405251815	574.9776698053126	1212.739384361734	2122.943881685916	573.7689765038655	1176.554219940234	2175.884026383637	685.1744799085099	1221.780698740715	2116.62145001443	683.1702931150272	1187.577814934619	
2815	18.76	2285.796579015859	980.2707709838468	912.3348066571266	1922.999486242661	582.6514074980228	977.0916239678238	1942.020307330865	554.3921729533155	926.959930400532	1968.827910919622	569.0227208969088	978.044960288031	2205.318547718696	1067.154829395805	862.8075133878499	1916.308917159835	355.7837260722487	978.7115617457853	1915.3036123631	410.008129262262	879.467640612614	2110.729161478261	1039.124540752858	965.5263647000424	2060.993627248909	505.4022281240801	903.2580757276951	2060.617967708883	550.7598522286953	926.8274223107229	2138.956499941585	513.0480007685377	882.2486868368673	2142.226302352439	560.3157772317768	905.457650237499	2356.013392932283	618.1009420867529	854.1744825533023	2304.431489749417	591.7408806512448	897.5273148803107	2296.49454629278	708.7253610245259	837.0358281109209	2245.697493396395	682.0946232984838	876.5997266003161	2265.145716114357	994.9928699142494	1159.070393141147	2036.513899363093	83.01234795714824	1056.842345168807	1850.726608279832	66.30796145649791	1015.51603380871	1878.311577577511	74.36225755451476	1066.822977977569	1866.987459829036	109.4520613140577	1023.065695739509	2187.400031160716	1058.069384669282	1182.741782201005	2074.704593541554	47.83269144779803	1005.70331262951	2027.803870976076	32.73714550213269	1111.479054160824	2106.277764572012	1046.043555059923	1062.604156766673	1969.539237688062	166.7120045631164	1109.338341439328	1930.993987539692	195.4839572602246	1081.902629841272	1996.182880109561	235.9353103042221	1142.926401008484	1956.988581953191	262.7627475187696	1116.844887258007	2169.33997854207	577.8147581815319	1210.710161250577	2107.445133638136	579.8151287395852	1175.171703967755	2166.29642954037	688.2226296231245	1220.226004251609	2106.649823273455	689.3809598889903	1186.60038307584	
2816	18.76666666666667	2287.317293339016	988.2842469016965	912.5610465115918	1930.45126838141	561.1299963589157	976.3510086342083	1952.402363325161	534.4333053545015	926.4125575832618	1977.316019669902	551.3266932487583	977.673496660194	2206.203725633205	1074.096396280213	864.1846188146485	1942.232689182041	334.353902405145	978.4613257922745	1938.086210213266	388.0155913585119	879.0346799492187	2112.321093684109	1045.155570248866	968.731719159097	2075.18286855514	493.8530885587787	904.3608194140417	2071.226533584668	539.4994739816407	927.1912043038213	2152.559949289667	507.0440654463632	883.8457994429476	2152.059441137197	554.8224697904026	906.3007900442979	2367.043045740891	630.243876719187	857.0972504535472	2315.481183772574	602.1436850806848	899.7503204729998	2304.774231511491	718.8821670879914	838.846155775143	2254.270061416677	690.7148655929884	877.8145382709683	2268.574396736394	998.0069728303811	1156.906755513767	2009.590124561851	84.01589801379374	1056.701718562238	1822.958898710494	75.85216409022762	1016.134358580839	1851.283142397194	82.36432716968505	1067.296456673241	1840.878887466538	118.2420431360864	1023.716268350354	2195.050404276986	1063.120101781799	1184.079132714485	2045.05178336973	47.084250520254	1004.857653014437	1997.993110253828	33.43543205133398	1110.88459912474	2109.122774942317	1050.898351508604	1066.575889081251	1943.566870365569	173.845164983537	1108.880302182674	1905.927300787077	202.8225473725582	1080.36366484109	1970.931390776088	243.1277317169098	1141.750776359267	1932.54036575398	270.1474108720829	1114.662456952603	2154.227928813846	581.8676747807358	1208.486301976877	2092.318815248826	587.1387939152365	1173.461908183051	2156.891647702897	692.1940834702785	1218.562728315972	2097.082449173376	696.548600132896	1185.424226609434	
